<?xml version="1.0" encoding="utf-8"?>
<!-- Generator: Adobe Illustrator 12.0.0, SVG Export Plug-In . SVG Version: 6.00 Build 51448)  -->
<!DOCTYPE svg PUBLIC "-//W3C//DTD SVG 1.1//EN" "http://www.w3.org/Graphics/SVG/1.1/DTD/svg11.dtd" [
	<!ENTITY ns_svg "http://www.w3.org/2000/svg">
	<!ENTITY ns_xlink "http://www.w3.org/1999/xlink">
]>
<svg  version="1.1" id="Capa_1" xmlns="&ns_svg;" xmlns:xlink="&ns_xlink;" width="612" height="612" viewBox="0 0 612 612"
	 overflow="visible" enable-background="new 0 0 612 612" xml:space="preserve">
<g>
	<g>
		<g id="XMLID_1_">
			<g>
				<path fill="#FF6600" d="M587.827,186.968c16.096,37.332,24.174,76.99,24.174,119.034c0,28.152-3.672,55.263-11.016,81.396
					c-7.344,26.132-17.626,50.49-30.906,73.134s-29.192,43.269-47.735,61.813c-18.544,18.543-39.169,34.455-61.813,47.735
					s-47.002,23.563-73.134,30.906c-26.133,7.344-53.244,11.016-81.396,11.016c-28.152,0-55.264-3.672-81.396-11.016
					c-26.133-7.344-50.49-17.626-73.134-30.906s-43.268-29.192-61.812-47.735c-18.543-18.544-34.456-39.169-47.736-61.813
					s-23.562-47.002-30.906-73.134c-7.344-26.133-11.016-53.244-11.016-81.396c0-28.152,3.672-55.264,11.016-81.396
					c7.344-26.133,17.626-50.49,30.906-73.134s29.192-43.268,47.736-61.812c18.544-18.543,39.168-34.456,61.812-47.736
					s47.001-23.562,73.134-30.906c26.132-7.344,53.244-11.016,81.396-11.016c42.044,0,81.702,8.078,119.034,24.174
					s69.769,37.944,97.309,65.484C549.883,117.199,571.731,149.635,587.827,186.968z M458.389,427.178V230.725
					c0-3.672-1.408-6.548-4.284-8.568l-140.76-108.936c-4.101-3.244-8.568-3.244-13.464,0L164.017,222.157
					c-2.448,2.02-3.672,4.896-3.672,8.568v196.453c0,3.243,1.041,5.936,3.06,7.955c2.02,2.021,4.468,3.061,7.344,3.061h80.784
					c3.244,0,5.937-1.04,7.956-3.061c2.02-2.02,3.06-4.712,3.06-7.955V306.614h93.024v120.564c0,3.243,1.04,5.936,3.06,7.955
					c2.021,2.021,4.713,3.061,7.956,3.061h80.784c3.244,0,5.937-1.04,7.956-3.061C457.348,433.114,458.389,430.421,458.389,427.178z
					"/>
				<path fill="#FFFFFF" d="M458.389,230.725v196.453c0,3.243-1.041,5.936-3.061,7.955c-2.02,2.021-4.712,3.061-7.956,3.061h-80.784
					c-3.243,0-5.936-1.04-7.956-3.061c-2.02-2.02-3.06-4.712-3.06-7.955V306.614h-93.024v120.564c0,3.243-1.041,5.936-3.06,7.955
					c-2.02,2.021-4.712,3.061-7.956,3.061h-80.784c-2.876,0-5.325-1.04-7.344-3.061c-2.02-2.02-3.06-4.712-3.06-7.955V230.725
					c0-3.672,1.224-6.548,3.672-8.568l135.864-108.936c4.896-3.244,9.364-3.244,13.464,0l140.76,108.936
					C456.981,224.177,458.389,227.053,458.389,230.725z"/>
			</g>
			<g>
			</g>
		</g>
	</g>
</g>
</svg>
