<?xml version="1.0" encoding="utf-8"?>
<!-- Generator: Adobe Illustrator 12.0.0, SVG Export Plug-In . SVG Version: 6.00 Build 51448)  -->
<!DOCTYPE svg PUBLIC "-//W3C//DTD SVG 1.1//EN" "http://www.w3.org/Graphics/SVG/1.1/DTD/svg11.dtd" [
	<!ENTITY ns_svg "http://www.w3.org/2000/svg">
	<!ENTITY ns_xlink "http://www.w3.org/1999/xlink">
]>
<svg  version="1.1" id="Capa_1" xmlns="&ns_svg;" xmlns:xlink="&ns_xlink;" width="512" height="512" viewBox="0 0 512 512"
	 overflow="visible" enable-background="new 0 0 512 512" xml:space="preserve">
<g>
	<g id="XMLID_2_">
		<g>
			<path fill="#FFFFFF" d="M256,64c53,0,96,43,96,96s-43,96-96,96c-53.02,0-96-43-96-96S202.98,64,256,64z"/>
			<path fill="#296811" d="M416,160c0,26.16-6.28,50.84-17.41,72.62L256,512c0,0-143.77-281.69-144.33-282.88
				C101.62,208.22,96,184.75,96,160C96,71.62,167.64,0,256,0C344.38,0,416,71.62,416,160z M352,160c0-53-43-96-96-96
				c-53.02,0-96,43-96,96s42.98,96,96,96C309,256,352,213,352,160z"/>
		</g>
		<g>
		</g>
	</g>
</g>
</svg>
